<svg xmlns="http://www.w3.org/2000/svg" xmlns:xlink="http://www.w3.org/1999/xlink" viewBox="0 0 160 90"><defs><style>.af8acdc8-7081-4471-9006-d2c6f1b870ed{fill:#f4f4f4;}.\33 55dc258-b467-44de-8421-57d91dda1e1e{fill:url(#934de4d5-6ac9-4aaf-bee2-0fc00936cbd4);}.\37 4489bc2-19e4-4656-8dad-85ce8cd67780{fill:#fff;}.\37 7887a1e-3db1-465b-9a27-3060c2453abe{fill:url(#aa17ada3-8fdf-4f7d-b2d4-73b8db25683b);}</style><linearGradient id="934de4d5-6ac9-4aaf-bee2-0fc00936cbd4" x1="80" y1="84.21569" x2="80" y2="5.78431" gradientUnits="userSpaceOnUse"><stop offset="0" stop-color="#262626"/><stop offset="1"/></linearGradient><radialGradient id="aa17ada3-8fdf-4f7d-b2d4-73b8db25683b" cx="43.39868" cy="14.03593" r="29.73176" gradientUnits="userSpaceOnUse"><stop offset="0" stop-color="red"/><stop offset="0.49497" stop-color="#e83e49"/><stop offset="1" stop-color="#f0f"/></radialGradient></defs><title>blik</title><g id="dc03766d-8adc-41da-920c-3f1f7bc5a9b0" data-name="Warstwa 2"><g id="27cce6cb-9cd1-4a73-874c-610678ff48cb" data-name="Warstwa 1"><g id="db74eb63-67ce-443d-98d7-4bcd034dd67b" data-name="82cc72ca-2c94-41e0-8341-9e381937ed5e"><g id="816fd5b1-3e48-435c-a696-991c23e84ab8" data-name="05738200-50f2-4994-96e6-49b91c8e083e"><rect class="af8acdc8-7081-4471-9006-d2c6f1b870ed" width="160" height="90"/></g></g></g><g id="3e027fc7-b9e6-4f02-a674-945256ae73ec" data-name="Warstwa 3"><path class="355dc258-b467-44de-8421-57d91dda1e1e" d="M30.41671,5.78431H129.5833A25.4167,25.4167,0,0,1,155,31.201V58.79909a25.4166,25.4166,0,0,1-25.4166,25.4166H30.41671A25.41671,25.41671,0,0,1,5,58.799V31.201A25.41671,25.41671,0,0,1,30.41671,5.78431Z"/><rect class="74489bc2-19e4-4656-8dad-85ce8cd67780" x="66.76471" y="17.34475" width="10.17157" height="56.98529"/><rect class="74489bc2-19e4-4656-8dad-85ce8cd67780" x="85.63725" y="36.58495" width="10.17157" height="37.7451"/><polygon class="74489bc2-19e4-4656-8dad-85ce8cd67780" points="141.397 74.33 126.112 54.355 126.112 54.355 140.172 36.585 128.162 36.585 114.681 53.824 114.681 17.345 104.51 17.345 104.51 74.33 114.681 74.33 114.681 54.951 128.162 74.33 141.397 74.33"/><path class="74489bc2-19e4-4656-8dad-85ce8cd67780" d="M40.84559,36.156a19.21366,19.21366,0,0,0-9.1299,2.29353V17.34475H21.54412V55.4575A19.30147,19.30147,0,1,0,40.84559,36.156Zm0,28.43137a9.1299,9.1299,0,1,1,9.1299-9.1299A9.1299,9.1299,0,0,1,40.84559,64.5874Z"/><circle class="77887a1e-3db1-465b-9a27-3060c2453abe" cx="50.77206" cy="23.59475" r="9.06863"/></g></g></svg>