<svg xmlns="http://www.w3.org/2000/svg" xmlns:xlink="http://www.w3.org/1999/xlink" viewBox="0 0 160 90"><defs><style>.\37 1fa80f1-b2bc-42a2-bbda-f5de21a8e166{fill:none;}.\39 0c38338-176d-41ca-8bc4-58437553f277{fill:#f4f4f4;}.\33 4ca4f4b-7275-4fc9-9465-3edbe2dd89fb{clip-path:url(#6daee456-57d8-4e11-b727-74ae91d18bb6);}.\38 1971b61-6763-4d5f-84f7-e2b47c360870{fill:#4186cd;}.\31 f1f1c98-a9ba-44e3-9d1c-9540b9381364,.\33 a0ffbb3-6083-4133-8572-75f23012436e,.\35 cde1cb8-1e0f-49cf-9f6c-fcb06829db35,.\38 1971b61-6763-4d5f-84f7-e2b47c360870,.abe9925c-f079-4495-ad64-38e5bafcc836{fill-rule:evenodd;}.\33 a0ffbb3-6083-4133-8572-75f23012436e{fill:#4487ca;}.abe9925c-f079-4495-ad64-38e5bafcc836{fill:#ca4638;}.\31 f1f1c98-a9ba-44e3-9d1c-9540b9381364{fill:#231f20;}.\35 cde1cb8-1e0f-49cf-9f6c-fcb06829db35{fill:#fff;}</style><clipPath id="6daee456-57d8-4e11-b727-74ae91d18bb6"><rect class="71fa80f1-b2bc-42a2-bbda-f5de21a8e166" x="16.09" y="4.93" width="127.83" height="80.14"/></clipPath></defs><title>maestro</title><g id="cf5853c8-98c9-4523-9381-832fa39d550f" data-name="Warstwa 2"><g id="d10eb237-5e9b-4891-9fae-2e1ef8152ad1" data-name="Warstwa 6"><rect class="90c38338-176d-41ca-8bc4-58437553f277" width="160" height="90"/><g class="34ca4f4b-7275-4fc9-9465-3edbe2dd89fb"><path class="81971b61-6763-4d5f-84f7-e2b47c360870" d="M80.07,69.6a33.33,33.33,0,1,0-22.36,8.63A33.26,33.26,0,0,0,80.07,69.6"/></g><g class="34ca4f4b-7275-4fc9-9465-3edbe2dd89fb"><path class="3a0ffbb3-6083-4133-8572-75f23012436e" d="M80.07,69.6a33.4,33.4,0,0,0,0-49.47Z"/></g><g class="34ca4f4b-7275-4fc9-9465-3edbe2dd89fb"><path class="abe9925c-f079-4495-ad64-38e5bafcc836" d="M102.47,11.5a33.2,33.2,0,0,0-22.41,8.63,36.21,36.21,0,0,0-3.37,3.54h6.74A27.52,27.52,0,0,1,86,27.2H74.17q-1,1.7-1.93,3.53H87.9a29.63,29.63,0,0,1,1.39,3.54H70.85a28.08,28.08,0,0,0-1,3.53H90.28A33.16,33.16,0,0,1,91,44.86a32.63,32.63,0,0,1-1.74,10.6H70.85A29.62,29.62,0,0,0,72.24,59H87.9A31.34,31.34,0,0,1,86,62.53H74.17a33.51,33.51,0,0,0,2.53,3.53h6.74a36.3,36.3,0,0,1-3.37,3.54,33.35,33.35,0,1,0,22.41-58.1"/></g><g class="34ca4f4b-7275-4fc9-9465-3edbe2dd89fb"><path class="1f1f1c98-a9ba-44e3-9d1c-9540b9381364" d="M131.32,63.47a1.09,1.09,0,1,1,1.09,1.08A1.09,1.09,0,0,1,131.32,63.47Zm1.09.82a.82.82,0,1,0,0-1.64.82.82,0,0,0,0,1.64Zm-.15-.35h-.2V63h.4a.46.46,0,0,1,.25,0,.37.37,0,0,1,.1.24.25.25,0,0,1-.15.24l.15.42h-.25l-.1-.38h-.2v.38Zm0-.54h.15c.05,0,.1,0,.1,0s.1-.07.1-.11,0-.08-.1-.1-.1,0-.1,0h-.15Z"/></g><g class="34ca4f4b-7275-4fc9-9465-3edbe2dd89fb"><polyline class="1f1f1c98-a9ba-44e3-9d1c-9540b9381364" points="52.51 54.15 48.29 54.15 50.77 41.14 45.07 54.15 41.6 54.15 40.91 41.22 38.13 54.15 34.31 54.15 37.53 37.23 44.13 37.23 44.23 47.7 48.79 37.23 55.78 37.23 52.51 54.15"/></g><g class="34ca4f4b-7275-4fc9-9465-3edbe2dd89fb"><path class="1f1f1c98-a9ba-44e3-9d1c-9540b9381364" d="M98.86,54a10.8,10.8,0,0,1-3,.45c-2.13,0-3.27-1.06-3.27-3a5.43,5.43,0,0,1,.1-1.23L93,48.82l.2-1.08,1.93-10.5H99.2l-.59,3.16h2.13l-.59,3.34H98l-1.09,5.74a2.76,2.76,0,0,0,0,.57c0,.71.4,1,1.39,1a3.94,3.94,0,0,0,1.14-.13l-.54,3"/></g><g class="34ca4f4b-7275-4fc9-9465-3edbe2dd89fb"><path class="1f1f1c98-a9ba-44e3-9d1c-9540b9381364" d="M82.4,44.74c0,1.74.94,2.94,3.17,3.84,1.69.69,2,.9,2,1.52,0,.86-.74,1.25-2.43,1.25a13.4,13.4,0,0,1-3.77-.55L80.81,54,81,54l.79.14c.25,0,.6.08,1.09.12,1,.07,1.78.12,2.33.12,4.41,0,6.45-1.46,6.45-4.59,0-1.88-.84-3-2.93-3.83-1.78-.7-2-.85-2-1.49s.69-1.13,2-1.13a26.65,26.65,0,0,1,3,.21l.6-3.19a32.71,32.71,0,0,0-3.67-.27c-4.71,0-6.35,2.11-6.3,4.65"/></g><g class="34ca4f4b-7275-4fc9-9465-3edbe2dd89fb"><path class="1f1f1c98-a9ba-44e3-9d1c-9540b9381364" d="M65.94,54.15H62.47l.1-1.43a5.66,5.66,0,0,1-4.36,1.67,3.6,3.6,0,0,1-3.82-3.75c0-3.35,2.68-5.31,7.29-5.31a14,14,0,0,1,1.69.11,2.73,2.73,0,0,0,.2-.89c0-.91-.74-1.25-2.68-1.25a15.46,15.46,0,0,0-3.47.39l-.55.14-.4.09.59-3.09a18.77,18.77,0,0,1,5-.73c3.57,0,5.45,1.4,5.45,4a12.7,12.7,0,0,1-.35,2.72l-.84,4.88-.15.87-.1.7-.1.48v.37ZM63.11,48a7.63,7.63,0,0,0-.94-.06c-2.33,0-3.52.7-3.52,2.09a1.36,1.36,0,0,0,1.49,1.4C61.83,51.46,63.07,50.06,63.11,48Z"/></g><g class="34ca4f4b-7275-4fc9-9465-3edbe2dd89fb"><path class="1f1f1c98-a9ba-44e3-9d1c-9540b9381364" d="M79.57,53.85a16.12,16.12,0,0,1-4.26.56c-4.66,0-7-2.11-7-6.16,0-4.72,3.07-8.2,7.24-8.2,3.42,0,5.6,1.94,5.6,5a11.84,11.84,0,0,1-.55,3.4H72.33a1.56,1.56,0,0,0,0,.43c0,1.59,1.24,2.41,3.67,2.41a11,11,0,0,0,4.31-.87Zm-2-8.19c0-.28,0-.52,0-.7,0-1.12-.74-1.78-2-1.78s-2.28.88-2.63,2.47Z"/></g><g class="34ca4f4b-7275-4fc9-9465-3edbe2dd89fb"><path class="1f1f1c98-a9ba-44e3-9d1c-9540b9381364" d="M123.84,47.91c-.6,4.57-3.82,6.6-8.08,6.6-4.66,0-6.54-2.85-6.54-6.34,0-4.88,3.17-8.18,8.13-8.18,4.31,0,6.59,2.72,6.59,6.21A9.65,9.65,0,0,1,123.84,47.91Zm-4.21-1.65c0-1.44-.59-2.8-2.28-2.8-2.13,0-3.42,2.51-3.42,4.72,0,1.86.89,3.12,2.38,3.09a4.06,4.06,0,0,0,3.17-3.37A8.48,8.48,0,0,0,119.63,46.27Z"/></g><g class="34ca4f4b-7275-4fc9-9465-3edbe2dd89fb"><path class="5cde1cb8-1e0f-49cf-9f6c-fcb06829db35" d="M124.29,52.1a1.09,1.09,0,1,1,1.09,1.08A1.09,1.09,0,0,1,124.29,52.1Zm1.09.82a.82.82,0,0,0,0-1.63.82.82,0,1,0,0,1.63Zm-.15-.35H125v-.95h.4a.58.58,0,0,1,.25.06.35.35,0,0,1,.1.24.26.26,0,0,1-.15.24l.15.41h-.25l-.15-.37h-.15Zm0-.54h.15a.29.29,0,0,0,.1,0s0-.07,0-.11,0-.07,0-.09-.1,0-.15,0h-.1Z"/></g><g class="34ca4f4b-7275-4fc9-9465-3edbe2dd89fb"><polyline class="5cde1cb8-1e0f-49cf-9f6c-fcb06829db35" points="53.55 53.17 49.38 53.17 51.86 40.17 46.16 53.17 42.39 53.17 41.7 40.25 39.22 53.17 35.45 53.17 38.67 36.26 45.17 36.26 45.47 46.73 50.08 36.26 56.82 36.26 53.55 53.17"/></g><g class="34ca4f4b-7275-4fc9-9465-3edbe2dd89fb"><path class="5cde1cb8-1e0f-49cf-9f6c-fcb06829db35" d="M99.9,53a10.83,10.83,0,0,1-3,.45c-2.13,0-3.27-1.07-3.27-3a11.16,11.16,0,0,1,.1-1.23L94,47.85l.2-1.09,1.93-10.5h4.11l-.59,3.16h2.13l-.6,3.35H99.05L98,48.5a2.74,2.74,0,0,0,0,.57c0,.71.45,1,1.44,1a3.78,3.78,0,0,0,1.09-.13L99.9,53"/></g><g class="34ca4f4b-7275-4fc9-9465-3edbe2dd89fb"><path class="1f1f1c98-a9ba-44e3-9d1c-9540b9381364" d="M110.55,43.37l-.1-.43.84-2.16a1.17,1.17,0,0,1-.3,0l-.4-.07a1.65,1.65,0,0,0-.4,0c-1.39,0-2.33.6-3.62,2.23l.45-2.45h-4.31l-2.53,13.74h4.12c.54-3.15.79-4.95,1.14-6.44.54-2.47,2.38-3.6,3.72-3.35a2,2,0,0,1,.45.1l.25.09.69-1.19"/></g><g class="34ca4f4b-7275-4fc9-9465-3edbe2dd89fb"><path class="5cde1cb8-1e0f-49cf-9f6c-fcb06829db35" d="M112,39.53a2.52,2.52,0,0,0-.45-.15l-.35-.08a3.27,3.27,0,0,0-.45,0c-1.34,0-2.33.61-3.62,2.24l.4-2.09h-3.77l-2.53,13.76h4.16c1.49-8.41,2.13-9.89,4.11-9.89a4.82,4.82,0,0,1,.5,0l.5.1L112,39.53"/></g><g class="34ca4f4b-7275-4fc9-9465-3edbe2dd89fb"><path class="5cde1cb8-1e0f-49cf-9f6c-fcb06829db35" d="M83.44,43.77c0,1.73,1,2.93,3.22,3.84,1.68.68,1.93.89,1.93,1.52,0,.85-.74,1.24-2.38,1.24a13.4,13.4,0,0,1-3.77-.54L81.85,53l.2,0,.74.13a10.49,10.49,0,0,0,1.14.12c1,.07,1.73.11,2.28.11,4.46,0,6.49-1.45,6.49-4.59,0-1.89-.84-3-3-3.83-1.73-.7-1.93-.85-1.93-1.5s.69-1.12,2-1.12a27.3,27.3,0,0,1,3,.2l.59-3.18a32.72,32.72,0,0,0-3.72-.27c-4.66,0-6.3,2.12-6.3,4.66"/></g><g class="34ca4f4b-7275-4fc9-9465-3edbe2dd89fb"><path class="5cde1cb8-1e0f-49cf-9f6c-fcb06829db35" d="M67,53.17H63.56l.1-1.42a5.59,5.59,0,0,1-4.36,1.66,3.59,3.59,0,0,1-3.77-3.75c0-3.35,2.68-5.31,7.29-5.31.45,0,1,0,1.68.11a4.11,4.11,0,0,0,.15-.89c0-.91-.74-1.25-2.68-1.25a14.7,14.7,0,0,0-3.42.38l-.59.15-.35.09.55-3.1a18.76,18.76,0,0,1,5-.72c3.57,0,5.45,1.4,5.45,4a15.4,15.4,0,0,1-.3,2.72l-.89,4.89-.15.87-.1.7,0,.47ZM64,47a7.62,7.62,0,0,0-.94-.05c-2.33,0-3.52.7-3.52,2.09A1.34,1.34,0,0,0,61,50.49C62.72,50.49,63.91,49.08,64,47Z"/></g><g class="34ca4f4b-7275-4fc9-9465-3edbe2dd89fb"><path class="5cde1cb8-1e0f-49cf-9f6c-fcb06829db35" d="M80.61,52.88a16.08,16.08,0,0,1-4.21.56c-4.66,0-7.09-2.11-7.09-6.17,0-4.72,3.07-8.19,7.24-8.19,3.42,0,5.6,1.94,5.6,5a13.54,13.54,0,0,1-.5,3.4H73.42a1.56,1.56,0,0,0,0,.43c0,1.59,1.24,2.41,3.62,2.41a11,11,0,0,0,4.31-.87ZM78.43,44.7V44a1.69,1.69,0,0,0-1.93-1.77c-1.34,0-2.28.87-2.68,2.47Z"/></g><g class="34ca4f4b-7275-4fc9-9465-3edbe2dd89fb"><path class="5cde1cb8-1e0f-49cf-9f6c-fcb06829db35" d="M124.93,46.94c-.65,4.57-3.82,6.61-8.08,6.61-4.71,0-6.59-2.85-6.59-6.34,0-4.87,3.22-8.18,8.18-8.18,4.31,0,6.59,2.72,6.59,6.21A9.56,9.56,0,0,1,124.93,46.94Zm-4.31-1.76c0-1.44-.59-2.8-2.28-2.8-2.13,0-3.42,2.51-3.42,4.72,0,1.87.89,3.13,2.38,3.1a4.06,4.06,0,0,0,3.17-3.37A8.55,8.55,0,0,0,120.62,45.18Z"/></g></g></g></svg>