<svg xmlns="http://www.w3.org/2000/svg" xmlns:xlink="http://www.w3.org/1999/xlink" viewBox="0 0 160 90"><defs><style>.\38 54ad2ee-a765-4808-b3a8-1d2abbe367f2{fill:none;}.ff312119-15c6-4afa-a907-9e84771cac23{fill:#265697;}.\39 edbc20f-42ec-49df-8d15-bebaf14e7052{clip-path:url(#5b0b059d-5170-47e4-8afb-53c73536d92a);}.\38 492c161-e034-4e09-9654-bc774d9f180c{fill:#dfac16;}.\37 6586a92-92e8-4bb4-a1c4-e5a431c2170e,.\38 492c161-e034-4e09-9654-bc774d9f180c,.f77242ce-38fe-4857-bd06-09b79dea8cf1{fill-rule:evenodd;}.\37 6586a92-92e8-4bb4-a1c4-e5a431c2170e{fill:#bf3126;}.d4dccb51-94bb-4f6e-a92b-a36608fec7ba,.f77242ce-38fe-4857-bd06-09b79dea8cf1{fill:#fff;}</style><clipPath id="5b0b059d-5170-47e4-8afb-53c73536d92a"><rect class="854ad2ee-a765-4808-b3a8-1d2abbe367f2" x="16.89" y="5.56" width="126.22" height="78.89"/></clipPath></defs><title>master-electronic</title><g id="650abe57-eb71-48da-9cf0-9a52e479cf2c" data-name="Warstwa 2"><g id="010fad4f-ded9-4698-93fa-f72dd07da8d3" data-name="Warstwa 5"><rect class="ff312119-15c6-4afa-a907-9e84771cac23" width="160" height="90"/><g class="9edbc20f-42ec-49df-8d15-bebaf14e7052"><path class="8492c161-e034-4e09-9654-bc774d9f180c" d="M134.86,45.39a32.84,32.84,0,1,1-65.68,0v0a32.84,32.84,0,1,1,65.68,0v0Z"/></g><g class="9edbc20f-42ec-49df-8d15-bebaf14e7052"><path class="76586a92-92e8-4bb4-a1c4-e5a431c2170e" d="M57.76,12.2A33.2,33.2,0,0,0,58,78.59a32.52,32.52,0,0,0,22.1-8.65h0a33.36,33.36,0,0,0,3.33-3.55H76.68A32.41,32.41,0,0,1,74.23,63h11.6a33.36,33.36,0,0,0,1.91-3.55H72.32a33,33,0,0,1-1.37-3.49H89.12a33.68,33.68,0,0,0,.93-17.64H70a33.38,33.38,0,0,1,.94-3.49H89.1a33.4,33.4,0,0,0-1.42-3.55H72.32a32,32,0,0,1,1.88-3.49H85.8a33.26,33.26,0,0,0-2.55-3.55H76.78a30.65,30.65,0,0,1,3.29-3.35A32.53,32.53,0,0,0,58,12.2Z"/></g><rect class="854ad2ee-a765-4808-b3a8-1d2abbe367f2" x="16.89" y="5.56" width="126.22" height="78.89"/><rect class="854ad2ee-a765-4808-b3a8-1d2abbe367f2" x="16.89" y="5.56" width="126.22" height="78.89"/><rect class="854ad2ee-a765-4808-b3a8-1d2abbe367f2" x="16.89" y="5.56" width="126.22" height="78.89"/><rect class="854ad2ee-a765-4808-b3a8-1d2abbe367f2" x="16.89" y="5.56" width="126.22" height="78.89"/><rect class="854ad2ee-a765-4808-b3a8-1d2abbe367f2" x="16.89" y="5.56" width="126.22" height="78.89"/><rect class="854ad2ee-a765-4808-b3a8-1d2abbe367f2" x="16.89" y="5.56" width="126.22" height="78.89"/><rect class="854ad2ee-a765-4808-b3a8-1d2abbe367f2" x="16.89" y="5.56" width="126.22" height="78.89"/><rect class="854ad2ee-a765-4808-b3a8-1d2abbe367f2" x="16.89" y="5.56" width="126.22" height="78.89"/><rect class="854ad2ee-a765-4808-b3a8-1d2abbe367f2" x="16.89" y="5.56" width="126.22" height="78.89"/><path class="f77242ce-38fe-4857-bd06-09b79dea8cf1" d="M72.34,35.24,72.67,33c-.18,0-.45.08-.68.08-.92,0-1-.49-1-.86l.74-4.62h1.4l.34-2.51H72.19l.27-1.56H69.82c-.06.06-1.56,8.77-1.56,9.83a2,2,0,0,0,2.1,2.26,6.87,6.87,0,0,0,2-.35Z"/><path class="f77242ce-38fe-4857-bd06-09b79dea8cf1" d="M77.8,27.15C79.29,27.15,79,28.84,79,29H76.09c0-.17.28-1.83,1.71-1.83Zm-4.62,3.76c0,3.77,2.46,4.66,4.56,4.66a6.65,6.65,0,0,0,2.79-.44L81,32.57a8.14,8.14,0,0,1-2.8.66c-2.83,0-2.34-2.13-2.34-2.13H81.2a19.36,19.36,0,0,0,.35-2.43c0-1.76-.86-3.9-3.76-3.9-2.65,0-4.61,2.89-4.61,6.15Z"/><path class="f77242ce-38fe-4857-bd06-09b79dea8cf1" d="M94.5,35.24,95,32.33a6.3,6.3,0,0,1-2.18.66c-1.87,0-2.62-1.44-2.62-3,0-3.15,1.61-4.88,3.4-4.88a4.66,4.66,0,0,1,2.42.76l.43-2.82a9.39,9.39,0,0,0-3-.65c-3,0-6,2.67-6,7.68,0,3.32,1.6,5.52,4.75,5.52A12,12,0,0,0,94.5,35.24Z"/><path class="f77242ce-38fe-4857-bd06-09b79dea8cf1" d="M58.4,30.78c.05.45-.28,2.55-1.87,2.55a1,1,0,0,1-1-1c0-.73.39-1.61,2.32-1.61a1.66,1.66,0,0,1,.57.06Zm-.56-6a9,9,0,0,0-3.19.59l-.38,2.3a8.25,8.25,0,0,1,2.87-.47c1,0,1.7.11,1.7.92a1.72,1.72,0,0,1-.09.67s-.77-.07-1.13-.07c-2.28,0-4.68,1-4.68,3.95,0,2.34,1.57,2.87,2.55,2.87a3.42,3.42,0,0,0,2.71-1.22l-.09,1h2.32l1-7.34C61.46,24.91,58.77,24.81,57.84,24.81Z"/><path class="f77242ce-38fe-4857-bd06-09b79dea8cf1" d="M63.92,35.51c.59,0,4,.15,4-3.39,0-3.31-3.14-2.66-3.14-4,0-.66.51-.87,1.45-.87.37,0,1.8.12,1.8.12L68.35,25a12.17,12.17,0,0,0-2.43-.21c-2,0-3.93.79-3.93,3.48,0,3.05,3.3,2.75,3.3,4,0,.86-.92.93-1.63.93a8.53,8.53,0,0,1-2.34-.41L61,35.19a8.29,8.29,0,0,0,3,.33Z"/><path class="f77242ce-38fe-4857-bd06-09b79dea8cf1" d="M115.12,29.65c0,1.41-.69,3.29-2.12,3.29-.95,0-1.39-.81-1.39-2.07,0-2.07.92-3.43,2.08-3.43.95,0,1.44.66,1.44,2.21Zm1.22-7-.57,3.57a3.48,3.48,0,0,0-2.55-1.39c-2.42,0-4.43,2.94-4.43,6.33,0,2.18,1.07,4.32,3.27,4.32a3.29,3.29,0,0,0,2.46-1.11l-.12,1H117l2-12.68Z"/><polygon class="f77242ce-38fe-4857-bd06-09b79dea8cf1" points="43.56 35.38 45.16 25.81 45.4 35.38 47.22 35.38 50.6 25.81 49.1 35.38 51.8 35.38 53.88 22.68 49.71 22.68 47.11 30.47 46.97 22.68 43.12 22.68 41.01 35.38 43.56 35.38"/><path class="f77242ce-38fe-4857-bd06-09b79dea8cf1" d="M84.19,35.4c.77-4.41.91-8,2.74-7.34a10.33,10.33,0,0,1,1-3.09,2.75,2.75,0,0,0-.51,0c-1.18,0-2.06,1.63-2.06,1.63l.24-1.5H83.12L81.48,35.4Z"/><path class="f77242ce-38fe-4857-bd06-09b79dea8cf1" d="M101.15,30.78c.05.45-.28,2.55-1.87,2.55a1,1,0,0,1-1-1c0-.73.39-1.61,2.32-1.61a1.67,1.67,0,0,1,.57.06Zm-.57-6a9,9,0,0,0-3.19.59L97,27.69a8.25,8.25,0,0,1,2.87-.47c1,0,1.7.11,1.7.92a1.73,1.73,0,0,1-.09.67s-.77-.07-1.13-.07c-2.28,0-4.68,1-4.68,3.95,0,2.34,1.57,2.87,2.55,2.87a3.42,3.42,0,0,0,2.7-1.22l-.09,1h2.32l1-7.34C104.2,24.91,101.52,24.81,100.58,24.81Z"/><path class="f77242ce-38fe-4857-bd06-09b79dea8cf1" d="M106.33,35.4c.77-4.41.91-8,2.74-7.34A10.35,10.35,0,0,1,110,25a2.75,2.75,0,0,0-.51,0c-1.18,0-2.06,1.63-2.06,1.63l.24-1.5h-2.46L103.62,35.4Z"/><rect class="854ad2ee-a765-4808-b3a8-1d2abbe367f2" x="16.89" y="5.56" width="126.22" height="78.89"/><path class="d4dccb51-94bb-4f6e-a92b-a36608fec7ba" d="M37.65,44.63c-.15,1.19-.43,2.32-.64,3.52-1.19.06-2.37,0-3.56,0H29.82c-.28,1.23-.5,2.47-.73,3.78H36l-.64,3.57h-7c-.31,1.37-.52,2.72-.8,4.08a7.27,7.27,0,0,0,1.42.05c.47,0,.94,0,1.42,0h4.36l-.65,3.46-.07.06,0,0a1.35,1.35,0,0,1-.22,0H22.58s-.07,0-.1,0a.35.35,0,0,1,0-.27l3.48-18.28Z"/><path class="d4dccb51-94bb-4f6e-a92b-a36608fec7ba" d="M90.6,49.46a8.25,8.25,0,0,1,3.49-1.63,8.57,8.57,0,0,1,4.51.21,5.83,5.83,0,0,1,3.87,4.16,8.72,8.72,0,0,1,.28,3,13.37,13.37,0,0,1-.51,3.11,7.58,7.58,0,0,1-1.71,3,7.1,7.1,0,0,1-3.76,2.06,10,10,0,0,1-4.31,0,5.58,5.58,0,0,1-3.82-2.66l-.12-.19a8.9,8.9,0,0,1-.84-4.81,9.12,9.12,0,0,1,1.81-5.06C89.84,50.23,90.24,49.86,90.6,49.46Zm7.5,5.32a5,5,0,0,0-.25-2,2,2,0,0,0-1.53-1.36,2.42,2.42,0,0,0-1.49.16,3.35,3.35,0,0,0-1.49,1.34,6.75,6.75,0,0,0-1,3.76,4.55,4.55,0,0,0,.33,1.71,2.19,2.19,0,0,0,1.61,1.45,2.55,2.55,0,0,0,1.65-.21,3.41,3.41,0,0,0,1.7-2A7.61,7.61,0,0,0,98.11,54.78Z"/><path class="d4dccb51-94bb-4f6e-a92b-a36608fec7ba" d="M56,56.95H47.54a2.22,2.22,0,0,0,1,2.59,4.38,4.38,0,0,0,1.94.54,10.38,10.38,0,0,0,4.79-.82.38.38,0,0,1,.32,0l-.71,3.73a11.76,11.76,0,0,1-2.49.52,13.4,13.4,0,0,1-2.2.12A10.67,10.67,0,0,1,46.83,63a5.39,5.39,0,0,1-3.31-3.75,10.78,10.78,0,0,1-.14-4.43,9.25,9.25,0,0,1,1.55-4,6.83,6.83,0,0,1,4.37-3,6.47,6.47,0,0,1,5.08.9,4.77,4.77,0,0,1,2,3.14,10,10,0,0,1-.15,4C56.19,56.23,56.1,56.57,56,56.95Zm-3.49-3.11a2.21,2.21,0,0,0-.13-1.74A2.08,2.08,0,0,0,50,51.22,3.09,3.09,0,0,0,48,53.84Z"/><path class="d4dccb51-94bb-4f6e-a92b-a36608fec7ba" d="M69.68,48.65l-.81,3.74a7.22,7.22,0,0,0-1.9-.74,4.05,4.05,0,0,0-3.29.5,3.93,3.93,0,0,0-1.57,2.4,6.17,6.17,0,0,0-.16,2.57,3,3,0,0,0,2.82,2.54,5.91,5.91,0,0,0,2.74-.52.37.37,0,0,1,.31,0L67.19,63a5.7,5.7,0,0,1-1.93.5,16.48,16.48,0,0,1-1.74.13,5.9,5.9,0,0,1-5.87-4.24,9,9,0,0,1-.35-4.06,9.08,9.08,0,0,1,1.83-4.55,7.87,7.87,0,0,1,5.13-3A9.66,9.66,0,0,1,69.68,48.65Z"/><path class="d4dccb51-94bb-4f6e-a92b-a36608fec7ba" d="M72,44.4h4.53l-.64,3.52A3.71,3.71,0,0,0,77,48c.37,0,.75,0,1.17,0l-.7,3.71H75.18a2.81,2.81,0,0,0-.29,1.15c-.32,1.68-.62,3.36-.89,5-.18,1.12,0,1.89,1.63,2,.33,0,.67,0,1.06,0L76,63.33a10.71,10.71,0,0,1-3.32.18,3.7,3.7,0,0,1-3.17-3,7.62,7.62,0,0,1,0-3c.41-2.62,1-5.21,1.43-7.81C71.25,48,71.61,46.21,72,44.4Z"/><path class="d4dccb51-94bb-4f6e-a92b-a36608fec7ba" d="M82,63.21H77.48c.19-1.28.43-2.54.67-3.8s.46-2.51.69-3.77.46-2.55.67-3.83.37-2.52.56-3.8h4.25a9.06,9.06,0,0,1-.26,2.07c.15,0,.18-.11.25-.18a2.34,2.34,0,0,0,.19-.21,5.35,5.35,0,0,1,2-1.59,3.68,3.68,0,0,1,2.85,0l-1.62,4.22a1.07,1.07,0,0,1-.6,0,2.31,2.31,0,0,0-2.71,1.31,10.93,10.93,0,0,0-.94,2.53c-.47,1.86-.84,3.74-1.16,5.63C82.25,62.27,82.15,62.71,82,63.21Z"/><path class="d4dccb51-94bb-4f6e-a92b-a36608fec7ba" d="M40.5,63.2H36.05a1.34,1.34,0,0,1,0-.67q.55-2.93,1.11-5.87c.39-2,.8-4.09,1.19-6.14.32-1.7.63-3.4,1-5.09,0-.26.11-.51.17-.82,1.49,0,3,0,4.52,0-.37,2.12-.78,4.16-1.17,6.2s-.77,4.13-1.16,6.2S40.9,61.09,40.5,63.2Z"/><path class="d4dccb51-94bb-4f6e-a92b-a36608fec7ba" d="M116.26,63.21H111.8a3.35,3.35,0,0,1,.14-1.19c.42-2.29.88-4.58,1.28-6.87a4.78,4.78,0,0,0,.08-1.85,1.54,1.54,0,0,0-1.53-1.24,2.67,2.67,0,0,0-2.13,1A6,6,0,0,0,108.38,56q-.6,3.13-1.2,6.25a5.67,5.67,0,0,1-.2.94,29.13,29.13,0,0,1-4.52,0c.86-5,2-10,2.71-15.15h4.2L109,50.38c.43-.45.77-.84,1.15-1.2A5.28,5.28,0,0,1,114,47.65a3.57,3.57,0,0,1,3.3,2,5.72,5.72,0,0,1,.66,2.2,9.15,9.15,0,0,1,0,2.37c-.4,2.51-.91,5-1.38,7.48C116.47,62.19,116.4,62.69,116.26,63.21Z"/><path class="d4dccb51-94bb-4f6e-a92b-a36608fec7ba" d="M135.7,59c-.16,1.35-.42,2.63-.62,3.94a6,6,0,0,1-1.85.48,16.82,16.82,0,0,1-1.86.14,5.89,5.89,0,0,1-5.76-4,8.74,8.74,0,0,1-.48-3.61,8.94,8.94,0,0,1,2.34-5.79,7.76,7.76,0,0,1,4.59-2.44,9.36,9.36,0,0,1,5.38.85s.06,0,.12.11l-.79,3.64c-.19,0-.3-.08-.43-.15a5.7,5.7,0,0,0-2.6-.67,3.48,3.48,0,0,0-3.15,1.66,5.5,5.5,0,0,0-.69,4.18,2.91,2.91,0,0,0,2.89,2.31,5.92,5.92,0,0,0,2.42-.45C135.34,59.16,135.49,59.12,135.7,59Z"/><path class="d4dccb51-94bb-4f6e-a92b-a36608fec7ba" d="M120.79,48h4.56L122.5,63.13a26.62,26.62,0,0,1-4.57.07Z"/></g></g></svg>