<svg xmlns="http://www.w3.org/2000/svg" xmlns:xlink="http://www.w3.org/1999/xlink" viewBox="0 0 160 90"><defs><style>.beb9138c-543a-434f-a2ce-491079696b82{fill:none;}.\34 57d8893-108b-48e5-a10f-b158b1f1be48{fill:#265697;}.\38 2a55232-41d9-4b5a-90de-86237f5c7a54{clip-path:url(#c6722c6b-9278-460c-8424-7d9ff3e784de);}.\31 5bf9002-2752-4518-8c62-bf2a986fe33e{fill:#dfac16;}.\31 5bf9002-2752-4518-8c62-bf2a986fe33e,.\37 e9151f9-61b4-412e-8f22-fe4423507aa5,.\38 553da5d-0afa-479e-9726-08cc6dc9425e{fill-rule:evenodd;}.\37 e9151f9-61b4-412e-8f22-fe4423507aa5{fill:#bf3126;}.\38 553da5d-0afa-479e-9726-08cc6dc9425e{fill:#fff;}</style><clipPath id="c6722c6b-9278-460c-8424-7d9ff3e784de"><rect class="beb9138c-543a-434f-a2ce-491079696b82" x="16.89" y="5.56" width="126.22" height="78.89"/></clipPath></defs><title>master-card</title><g id="be9f898c-9622-4bbf-a7db-eeed642500ba" data-name="Warstwa 2"><g id="7b9b0d05-6565-4f1f-bcf5-1baad19f7cce" data-name="Warstwa 4"><rect class="457d8893-108b-48e5-a10f-b158b1f1be48" width="160" height="90"/><g class="82a55232-41d9-4b5a-90de-86237f5c7a54"><path class="15bf9002-2752-4518-8c62-bf2a986fe33e" d="M134.86,45.39a32.84,32.84,0,1,1-65.68,0v0a32.84,32.84,0,1,1,65.68,0v0Z"/></g><g class="82a55232-41d9-4b5a-90de-86237f5c7a54"><path class="7e9151f9-61b4-412e-8f22-fe4423507aa5" d="M57.76,12.2A33.2,33.2,0,0,0,58,78.59a32.52,32.52,0,0,0,22.1-8.65h0a33.36,33.36,0,0,0,3.33-3.55H76.68A32.41,32.41,0,0,1,74.23,63h11.6a33.36,33.36,0,0,0,1.91-3.55H72.32a33,33,0,0,1-1.37-3.49H89.12a33.68,33.68,0,0,0,.93-17.64H70a33.38,33.38,0,0,1,.94-3.49H89.1a33.4,33.4,0,0,0-1.42-3.55H72.32a32,32,0,0,1,1.88-3.49H85.8a33.26,33.26,0,0,0-2.55-3.55H76.78a30.65,30.65,0,0,1,3.29-3.35A32.53,32.53,0,0,0,58,12.2Z"/></g><g class="82a55232-41d9-4b5a-90de-86237f5c7a54"><path class="8553da5d-0afa-479e-9726-08cc6dc9425e" d="M69.78,53.85l.44-3c-.24,0-.59.1-.9.1-1.22,0-1.35-.65-1.27-1.14l1-6.13h1.85l.45-3.32H69.58l.36-2.07h-3.5c-.08.08-2.06,11.62-2.06,13,0,2.08,1.16,3,2.79,3a9.11,9.11,0,0,0,2.62-.46Z"/></g><g class="82a55232-41d9-4b5a-90de-86237f5c7a54"><path class="8553da5d-0afa-479e-9726-08cc6dc9425e" d="M77,43.13c2,0,1.61,2.24,1.61,2.42H74.75c0-.23.37-2.42,2.27-2.42Zm-6.13,5c0,5,3.26,6.18,6,6.18a8.82,8.82,0,0,0,3.69-.58l.62-3.41a10.79,10.79,0,0,1-3.71.87c-3.75,0-3.1-2.83-3.1-2.83h7.11A25.68,25.68,0,0,0,82,45.13C82,42.8,80.85,40,77,40c-3.52,0-6.12,3.83-6.12,8.16Z"/></g><g class="82a55232-41d9-4b5a-90de-86237f5c7a54"><path class="8553da5d-0afa-479e-9726-08cc6dc9425e" d="M99.16,53.84,99.79,50a8.35,8.35,0,0,1-2.89.87c-2.48,0-3.47-1.91-3.47-4,0-4.17,2.13-6.47,4.51-6.47a6.18,6.18,0,0,1,3.21,1l.57-3.74a12.44,12.44,0,0,0-3.94-.87c-4,0-8,3.54-8,10.19,0,4.41,2.12,7.32,6.29,7.32A16,16,0,0,0,99.16,53.84Z"/></g><g class="82a55232-41d9-4b5a-90de-86237f5c7a54"><path class="8553da5d-0afa-479e-9726-08cc6dc9425e" d="M51.3,47.94c.07.59-.37,3.38-2.47,3.38A1.28,1.28,0,0,1,47.46,50c0-1,.52-2.13,3.08-2.13a2.2,2.2,0,0,1,.76.08ZM50.55,40a12,12,0,0,0-4.24.78l-.51,3a10.93,10.93,0,0,1,3.81-.62c1.3,0,2.25.15,2.25,1.22a2.28,2.28,0,0,1-.12.89s-1-.09-1.5-.09c-3,0-6.2,1.3-6.2,5.24,0,3.1,2.08,3.81,3.38,3.81A4.54,4.54,0,0,0,51,52.66L50.9,54H54l1.37-9.73C55.35,40.15,51.79,40,50.55,40Z"/></g><g class="82a55232-41d9-4b5a-90de-86237f5c7a54"><path class="8553da5d-0afa-479e-9726-08cc6dc9425e" d="M58.63,54.21c.79,0,5.29.2,5.29-4.49,0-4.39-4.17-3.52-4.17-5.29,0-.88.68-1.15,1.92-1.15.49,0,2.39.16,2.39.16l.44-3.12A16.14,16.14,0,0,0,61.27,40c-2.59,0-5.21,1-5.21,4.61,0,4,4.38,3.64,4.38,5.34,0,1.14-1.22,1.23-2.17,1.23a11.31,11.31,0,0,1-3.11-.54l-.47,3.09a11,11,0,0,0,3.92.43Z"/></g><g class="82a55232-41d9-4b5a-90de-86237f5c7a54"><path class="8553da5d-0afa-479e-9726-08cc6dc9425e" d="M126.5,46.44c0,1.87-.91,4.36-2.81,4.36-1.26,0-1.85-1.07-1.85-2.74,0-2.74,1.22-4.55,2.75-4.55,1.26,0,1.9.87,1.9,2.93Zm1.62-9.22-.75,4.73A4.61,4.61,0,0,0,124,40.11c-3.2,0-5.87,3.9-5.87,8.39,0,2.9,1.42,5.73,4.34,5.73a4.36,4.36,0,0,0,3.26-1.48L125.56,54H129l2.67-16.81Z"/></g><g class="82a55232-41d9-4b5a-90de-86237f5c7a54"><polygon class="8553da5d-0afa-479e-9726-08cc6dc9425e" points="31.62 54.03 33.75 41.34 34.06 54.03 36.47 54.03 40.97 41.34 38.98 54.03 42.55 54.03 45.31 37.2 39.78 37.2 36.33 47.53 36.15 37.2 31.05 37.2 28.25 54.03 31.62 54.03"/></g><g class="82a55232-41d9-4b5a-90de-86237f5c7a54"><path class="8553da5d-0afa-479e-9726-08cc6dc9425e" d="M85.49,54.05c1-5.85,1.21-10.6,3.64-9.73a13.7,13.7,0,0,1,1.3-4.1,3.65,3.65,0,0,0-.67,0c-1.57,0-2.73,2.16-2.73,2.16l.31-2H84.08L81.9,54.05Z"/></g><g class="82a55232-41d9-4b5a-90de-86237f5c7a54"><path class="8553da5d-0afa-479e-9726-08cc6dc9425e" d="M108,47.94c.07.59-.37,3.38-2.47,3.38A1.28,1.28,0,0,1,104.14,50c0-1,.52-2.13,3.08-2.13a2.22,2.22,0,0,1,.76.08ZM107.23,40a12,12,0,0,0-4.24.78l-.51,3a10.93,10.93,0,0,1,3.81-.62c1.3,0,2.25.15,2.25,1.22a2.29,2.29,0,0,1-.12.89s-1-.09-1.5-.09c-3,0-6.2,1.3-6.2,5.24,0,3.1,2.08,3.81,3.38,3.81a4.53,4.53,0,0,0,3.59-1.62L107.58,54h3.08L112,44.28C112,40.15,108.47,40,107.23,40Z"/></g><g class="82a55232-41d9-4b5a-90de-86237f5c7a54"><path class="8553da5d-0afa-479e-9726-08cc6dc9425e" d="M114.85,54.05c1-5.85,1.21-10.6,3.63-9.73a13.73,13.73,0,0,1,1.3-4.1,3.65,3.65,0,0,0-.67,0c-1.57,0-2.73,2.16-2.73,2.16l.31-2h-3.26l-2.18,13.7Z"/></g></g></g></svg>