<svg xmlns="http://www.w3.org/2000/svg" viewBox="0 0 160 90"><defs><style>.\37 777e3d6-b74e-4048-aed2-36746dc4d373{fill:#f4f4f4;}.\30 27dc596-85e3-4d2c-98ec-476903a588b1{fill:#a6c307;}</style></defs><title>payu</title><g id="da718cac-5b42-4ee0-a21a-7e4e0a15d91f" data-name="Warstwa 2"><g id="5bcb5337-957a-4e48-bc8d-c1b8e528e67d" data-name="Warstwa 1"><g id="76e14f96-7018-4e3d-851f-03bd88d54ab0" data-name="82cc72ca-2c94-41e0-8341-9e381937ed5e"><g id="563cda4e-ca97-4190-bc5a-a21c5bd46fe5" data-name="05738200-50f2-4994-96e6-49b91c8e083e"><rect class="7777e3d6-b74e-4048-aed2-36746dc4d373" width="160" height="90"/></g></g></g><g id="1f217cda-6bf7-497f-a88c-0dfda9431d0b" data-name="Warstwa 2"><path class="027dc596-85e3-4d2c-98ec-476903a588b1" d="M135.03633,35.82677a1.76429,1.76429,0,0,1-1.7637-1.76493l.00266-7.79777H132.625c-4.03429,0-5.53439.66562-5.53439,4.34021V39.203c-.00048.01836-.00276.03621-.00276.0547V41.1422c-.001.06553-.00522.1264-.00522.19348V53.35a6.42637,6.42637,0,0,1-.86645,3.54373c-1.09965,1.69453-3.27731,2.46493-6.76161,2.46955-3.48292-.00462-5.66022-.77439-6.76029-2.46753a6.42431,6.42431,0,0,1-.86775-3.54575V41.33568c0-.06708-.00421-.128-.00522-.19348V39.25771c0-.01849-.00228-.03634-.00275-.0547V30.60428c0-3.67459-1.5001-4.34021-5.53439-4.34021h-1.27c-4.03435,0-5.53445.66562-5.53445,4.34021V53.35a16.898,16.898,0,0,0,2.41966,9.25416c3.07934,4.83913,9.04412,7.41685,17.524,7.41685l.03122-.0005.03121.0005c8.47992,0,14.4447-2.57772,17.524-7.41685A16.898,16.898,0,0,0,139.42944,53.35V35.82829Z"/><rect class="027dc596-85e3-4d2c-98ec-476903a588b1" x="145.74248" y="13.92225" width="9.25636" height="9.3385" rx="1.31043" ry="1.31043"/><rect class="027dc596-85e3-4d2c-98ec-476903a588b1" x="139.44911" y="7.57843" width="6.28678" height="6.34256" rx="0.89002" ry="0.89002"/><path class="027dc596-85e3-4d2c-98ec-476903a588b1" d="M22.107,26.25613H12.45678C7.29972,26.25613,5,28.55586,5,33.71291V66.83646c0,1.99231.63944,2.63175,2.63175,2.63175H8.2839c1.99231,0,2.63174-.63944,2.63174-2.63175V53.94961H22.107c9.93628,0,14.56409-4.39993,14.56409-13.84657C36.67109,30.65607,32.04328,26.25613,22.107,26.25613ZM30.75544,40.103c0,5.39747-1.37813,8.32228-8.64844,8.32228H10.91564V34.49546c0-1.93168.71817-2.64984,2.64968-2.64984H22.107C27.58434,31.84562,30.75544,33.1967,30.75544,40.103Z"/><path class="027dc596-85e3-4d2c-98ec-476903a588b1" d="M49.10008,35.75455a34.57485,34.57485,0,0,0-7.1303.66161c-1.60959.34995-2.2826.79167-2.2826,2.62229V39.56a2.84261,2.84261,0,0,0,.334,1.56363,1.41034,1.41034,0,0,0,1.26991.61368,4.17648,4.17648,0,0,0,.99819-.14474,34.8767,34.8767,0,0,1,7.07161-.705c5.77237,0,8.12686,1.59883,8.12686,5.51874v3.49742H50.20846c-9.35781,0-13.71618,3.15676-13.71618,9.93466,0,6.57447,4.50066,10.19512,12.673,10.19512,9.71151,0,14.04233-3.30509,14.04233-10.71688V46.40639C63.20761,39.23877,58.593,35.75455,49.10008,35.75455Zm8.38765,18.826v4.54076c0,3.70166-1.37243,5.84458-8.38765,5.84458-4.63482,0-6.88792-1.67724-6.88792-5.12739,0-3.78381,2.26028-5.258,8.06149-5.258Z"/><path class="027dc596-85e3-4d2c-98ec-476903a588b1" d="M95.215,37.29848a2.44959,2.44959,0,0,0-1.97324-.58923h-.58679c-1.94716,0-2.711.601-3.14192,2.46956l-5.4115,22.49372c-.67578,2.76426-1.6241,3.26988-3.24852,3.26988-1.98856,0-2.78431-.47465-3.57729-3.28048l-6.12884-22.494c-.50725-1.88408-1.25589-2.45864-3.20419-2.45864h-.52176a2.40759,2.40759,0,0,0-1.97112.59673,2.44037,2.44037,0,0,0-.059,2.079l6.19388,22.68883c1.16184,4.34207,2.5434,7.93631,7.70355,7.93631a8.226,8.226,0,0,0,2.59523-.3837c-1.56477,4.92251-3.15724,7.09395-7.85269,7.57577-.95288.07954-1.57194.21581-1.91717.67839a2.23815,2.23815,0,0,0-.14849,1.7809l.12926.58158c.28019,1.34537.75744,2.17926,2.26793,2.17926q.23766,0,.51247-.02412c7.011-.45867,10.7674-4.23335,12.9659-13.02817l7.50046-30.001A2.47736,2.47736,0,0,0,95.215,37.29848Z"/><path class="027dc596-85e3-4d2c-98ec-476903a588b1" d="M143.97456,23.25675l-8.93389-.0031a1.76436,1.76436,0,0,0-1.76493,1.76373l-.00045,1.24669h.61969c4.03436,0,5.53446.66562,5.53446,4.34021v5.224l4.54078.00158a1.76432,1.76432,0,0,0,1.76493-1.76372l.00314-9.04447A1.76435,1.76435,0,0,0,143.97456,23.25675Z"/></g></g></svg>