<svg xmlns="http://www.w3.org/2000/svg" viewBox="0 0 160 90"><defs><style>.\34 2dfbadf-46a7-4548-924a-c9ca4a9f5c02{fill:#005a9b;}.\34 2dfbadf-46a7-4548-924a-c9ca4a9f5c02,.\37 9b81063-b59d-4293-867e-ad386098a43d,.d3fcd528-e8ef-4464-99bd-111d3b69ffac{fill-rule:evenodd;}.\37 9b81063-b59d-4293-867e-ad386098a43d{fill:#fff;}.d3fcd528-e8ef-4464-99bd-111d3b69ffac{fill:#faa929;}</style></defs><title>visa-electron</title><g id="1e0a1dc6-9c4f-4466-bf84-94fc35cd78fb" data-name="Warstwa 2"><g id="9d1b2bc4-6e69-4440-b38a-ce4bf8725190" data-name="Warstwa 2"><polygon class="42dfbadf-46a7-4548-924a-c9ca4a9f5c02" points="0 0 0 90 160 90 160 0 0 0 0 0"/><polygon class="42dfbadf-46a7-4548-924a-c9ca4a9f5c02" points="149.84 87 149.84 3.46 9.86 3.46 9.86 87 149.84 87 149.84 87"/><polygon class="79b81063-b59d-4293-867e-ad386098a43d" points="63.07 33.01 69.5 11.81 75.24 11.81 68.81 33.01 63.07 33.01 63.07 33.01"/><path class="79b81063-b59d-4293-867e-ad386098a43d" d="M60.51,11.81l-5.16,9c-1.31,2.36-2.08,3.55-2.45,5h-.08c.09-1.89-.17-4.2-.2-5.51L52,11.81H42.39l-.1.57c2.48,0,4,1.25,4.36,3.8L48.53,33h5.95l12-21.2Z"/><path class="d3fcd528-e8ef-4464-99bd-111d3b69ffac" d="M48,52.74c14.84-6.36,35.66-12.12,63.24-6.35l.29-7c-29.1-3.18-50,6.09-63.53,12.66v.69Z"/><polygon class="79b81063-b59d-4293-867e-ad386098a43d" points="21.2 57.89 35.18 57.89 35.18 62.1 26.49 62.1 26.43 65.99 35.09 65.99 35.09 70.03 26.4 70.03 26.44 73.92 35.01 73.92 35.01 78.13 21.2 78.13 21.2 57.89 21.2 57.89"/><polygon class="79b81063-b59d-4293-867e-ad386098a43d" points="38.69 56.19 43.78 56.19 43.8 78.13 38.71 78.13 38.69 56.19 38.69 56.19"/><path class="79b81063-b59d-4293-867e-ad386098a43d" d="M61.3,76.46a10.77,10.77,0,0,1-6.7,2.19c-5.35,0-7.78-3.8-7.78-7.58a8,8,0,0,1,7.93-8.22c5.62,0,7.37,4,7.37,9H51.9c0,1.14.73,3.07,3.54,3.07a6.54,6.54,0,0,0,4.15-1.46l1.7,3Zm-3.74-7.55c0-1.52-.73-2.9-2.43-2.9A3.51,3.51,0,0,0,52,68.92Z"/><path class="79b81063-b59d-4293-867e-ad386098a43d" d="M77.56,77.14a11.58,11.58,0,0,1-5.41,1.52c-4.68,0-8-2.69-8-7.55s3.34-8.25,8.37-8.25a10.45,10.45,0,0,1,5,1.29l-1.64,3.34a6.29,6.29,0,0,0-2.4-.59c-2.55,0-4.24,1.52-4.24,3.95A3.74,3.74,0,0,0,73,74.62a6.44,6.44,0,0,0,2.75-.85l1.81,3.36Z"/><path class="79b81063-b59d-4293-867e-ad386098a43d" d="M79.45,63.39h2.3l0-5h4.92l-.12,5h4.18l-.09,3.69H86.44c0,2-.15,4.21-.15,5.47s.32,1.9,1.46,1.9a3.67,3.67,0,0,0,1.87-.7l1.11,3.45a10,10,0,0,1-5,1.46c-4.13,0-4.33-2.6-4.33-6,0-1.81.15-3.63.15-5.59H79.33l.12-3.69Z"/><path class="79b81063-b59d-4293-867e-ad386098a43d" d="M93.32,63.39h5.09v2.08h.06c.76-1.26,1.76-2.49,3.74-2.49a7.88,7.88,0,0,1,1.67.18l-.67,5a6,6,0,0,0-1.81-.29,3.6,3.6,0,0,0-3,1.73l-.09,8.51H93.2l.12-14.75Z"/><path class="79b81063-b59d-4293-867e-ad386098a43d" d="M113.1,62.86c5.44,0,8.25,3.45,8.25,7.9s-2.81,7.9-8.25,7.9-8.25-3.45-8.25-7.9,2.81-7.9,8.25-7.9Zm0,11.94c2.43,0,3.16-2.11,3.16-4s-.73-4-3.16-4-3.16,2.11-3.16,4,.73,4,3.16,4Z"/><path class="79b81063-b59d-4293-867e-ad386098a43d" d="M124.12,63.39h5.09V65A7.22,7.22,0,0,1,134,62.86c3.13,0,4.83,1.73,4.83,5.76,0,3,0,6.26-.06,9.51h-5.09c0-2.84.06-5.7.06-8.75,0-1.2-.32-2.14-1.84-2.14a4.75,4.75,0,0,0-2.66,1.35l0,9.54H124l.12-14.75Z"/><path class="79b81063-b59d-4293-867e-ad386098a43d" d="M105.14,33,105,29.86H97.81L96.35,33H90.12l11.3-21.17h7.65L111,33Zm-.66-12.51a48.49,48.49,0,0,1,0-5h-.08c-.35,1.05-1.85,4.21-2.51,5.77l-2.14,4.65h5l-.29-5.43Z"/><path class="79b81063-b59d-4293-867e-ad386098a43d" d="M81.27,33.62a16,16,0,0,1-8.66-2.43L75.34,27c1.72,1,3.08,2.08,6.19,2.08A2.66,2.66,0,0,0,84,27.88c.8-1.38-.18-2.12-2.43-3.39l-1.11-.72c-3.32-2.27-4.76-4.43-3.2-8.19,1-2.41,3.64-4.23,8-4.23a12.84,12.84,0,0,1,7.46,2.57l-3.14,3.69a7,7,0,0,0-4.45-1.95,2.67,2.67,0,0,0-2.45,1.1c-.6,1.19.19,2,1.94,3.08l1.32.84c4,2.54,5,5.21,4,7.71-1.74,4.29-5.15,5.25-8.71,5.25Z"/></g></g></svg>