<svg xmlns="http://www.w3.org/2000/svg" viewBox="0 0 160 90"><defs><style>.\34 72bcf40-042c-4a4d-92ed-9127dcde6f03{fill:#f4efe4;}.\32 2491c29-5550-485f-ae21-e1fee58109fb{fill:#2b5fb5;}.\35 e6d6f4d-1b9e-400f-8fc5-568bd92758b1{fill:#f39c12;}</style></defs><title>visa</title><g id="c7c0e9f3-a7e4-4d59-87d0-35bcefd99db0" data-name="Warstwa 2"><g id="55df7056-f5ad-4232-b884-3d0ccfd49375" data-name="Warstwa 3"><path class="472bcf40-042c-4a4d-92ed-9127dcde6f03" d="M50.66,44.8l.16.37Z"/><path class="472bcf40-042c-4a4d-92ed-9127dcde6f03" d="M0,70H160V20H0ZM115.23,30h6l6.28,30h-7.2s-.71-3.44-1-4.49l-9.92,0c-.3.81-1.64,4.51-1.64,4.51H99.66l11.51-27.54C112,30.5,113.38,30,115.23,30ZM79.47,52.24l1,.49a15.58,15.58,0,0,0,7.29,1.57c2.23,0,4.63-.92,4.65-2.92,0-1.32-1-2.26-4-3.74s-6.84-3.84-6.78-8.17c0-5.84,5.43-9.92,13.1-9.92a19.18,19.18,0,0,1,7,1.27l-1.06,6.51L99.9,37a13.52,13.52,0,0,0-5.8-1.15c-3,0-4.43,1.34-4.43,2.59,0,1.41,1.63,2.34,4.34,3.72,4.48,2.15,6.55,4.74,6.52,8.17-.06,6.24-5.36,10.26-13.51,10.26A23.18,23.18,0,0,1,78.38,59ZM68.64,29.79h7.75V60.24H68.64ZM32.5,30H45.07c1.69.07,3,.63,3.52,2.53L51.3,46.35l0-.11,0,.1.81,4.16L59.7,30h8.21L55.71,60H47.5L40.58,33.8a31,31,0,0,0-8.08-3.29Z"/><polygon class="472bcf40-042c-4a4d-92ed-9127dcde6f03" points="115.78 38.09 111.67 49.35 118.09 49.35 115.78 38.09"/><path class="22491c29-5550-485f-ae21-e1fee58109fb" d="M50.66,44.8a24.66,24.66,0,0,0-10.09-11L47.5,60h8.21l12.2-30H59.7L52.11,50.5l-.81-4.16,0-.1c-.13-.36-.28-.72-.43-1.07Z"/><rect class="22491c29-5550-485f-ae21-e1fee58109fb" x="68.64" y="29.79" width="7.75" height="30.45"/><path class="22491c29-5550-485f-ae21-e1fee58109fb" d="M100.52,50.3c0-3.43-2-6-6.52-8.17-2.71-1.38-4.37-2.31-4.34-3.72,0-1.25,1.39-2.59,4.43-2.59A13.52,13.52,0,0,1,99.9,37l.69.36,1.06-6.51a19.18,19.18,0,0,0-7-1.27c-7.67,0-13.06,4.08-13.1,9.92-.05,4.32,3.85,6.74,6.78,8.17s4,2.42,4,3.74c0,2-2.42,2.92-4.65,2.92a15.58,15.58,0,0,1-7.29-1.57l-1-.49L78.38,59A23.18,23.18,0,0,0,87,60.56C95.16,60.56,100.46,56.54,100.52,50.3Z"/><path class="22491c29-5550-485f-ae21-e1fee58109fb" d="M107.8,60s1.34-3.7,1.64-4.51l9.92,0c.24,1,1,4.49,1,4.49h7.2l-6.28-30h-6c-1.85,0-3.24.52-4.06,2.49L99.66,60Zm8-21.92,2.31,11.26h-6.43Z"/><path class="5e6d6f4d-1b9e-400f-8fc5-568bd92758b1" d="M50.66,44.8l.16.37c.15.35.3.71.43,1.07l0,.11L48.59,32.53c-.47-1.9-1.83-2.46-3.52-2.53H32.5v.51a31,31,0,0,1,8.08,3.29A24.66,24.66,0,0,1,50.66,44.8Z"/><rect class="22491c29-5550-485f-ae21-e1fee58109fb" width="160" height="19.97"/><rect class="5e6d6f4d-1b9e-400f-8fc5-568bd92758b1" y="70.03" width="160" height="19.97"/></g></g></svg>